<svg xmlns="http://www.w3.org/2000/svg" viewBox="0 0 478.04 341.07"><defs><style>.cls-1{isolation:isolate;}.cls-2,.cls-3{fill:#2d2e83;}.cls-2{stroke:#1d1d1b;stroke-linejoin:round;stroke-width:0.25px;opacity:0.98;mix-blend-mode:overlay;}.cls-3{opacity:0;}.cls-4{fill:none;stroke:#3bbeef;stroke-linecap:round;stroke-width:4px;stroke-dasharray:14 12;}.cls-5{fill:#79cbe4;}.cls-6{fill:#3bbeef;}.cls-7{fill:#cdeaf8;}.cls-8{fill:#2a5aa6;}.cls-9{fill:#9bd3d2;}.cls-10{fill:#1761ac;}.cls-11{fill:#72c2ab;}.cls-12{fill:#182d4b;}.cls-13{font-size:12px;}.cls-13,.cls-15,.cls-16,.cls-17,.cls-18{fill:#54c3ea;font-family:Gadugi-Bold, Gadugi;font-weight:700;}.cls-13,.cls-16{letter-spacing:0.1em;}.cls-14,.cls-15,.cls-16,.cls-17,.cls-18{font-size:36px;}.cls-15{letter-spacing:0.1em;}.cls-17{letter-spacing:0.1em;}.cls-18{letter-spacing:0.1em;}</style></defs><title>blueageportfolio</title><g class="cls-1"><g id="Layer_1" data-name="Layer 1"><rect class="cls-2" x="0.13" y="0.13" width="477.79" height="340.82" rx="10"/><g id="server"><path id="Path_11" data-name="Path 11" class="cls-3" d="M473.33,1164.12H719V1068H473.33Z" transform="translate(-246.55 -916.97)"/><path id="Path_10" data-name="Path 10" class="cls-4" d="M357.38,989.17l79.51,53.18" transform="translate(-246.55 -916.97)"/><g id="pc1"><path id="Path_1" data-name="Path 1" class="cls-5" d="M415.92,1010.44l35,23.24-35,23.83-35-23.83Z" transform="translate(-246.55 -916.97)"/><path id="Path_3" data-name="Path 3" class="cls-6" d="M380.88,1033.68v47l34.93,24.15,0-47.42Z" transform="translate(-246.55 -916.97)"/><path id="Path_5" data-name="Path 5" class="cls-7" d="M385.79,1046.58v2.81l2.1,1.45V1048Z" transform="translate(-246.55 -916.97)"/><path id="Path_5-2" data-name="Path 5-2" class="cls-7" d="M385.79,1052.09v2.81l2.1,1.45v-2.84Z" transform="translate(-246.55 -916.97)"/><path id="Path_5-3" data-name="Path 5-3" class="cls-7" d="M385.79,1057.59v2.82l2.1,1.45V1059Z" transform="translate(-246.55 -916.97)"/><path id="Path_5-4" data-name="Path 5-4" class="cls-7" d="M385.79,1063.1v2.82l2.1,1.45v-2.84Z" transform="translate(-246.55 -916.97)"/><path id="Path_5-5" data-name="Path 5-5" class="cls-7" d="M385.79,1068.61v2.82l2.1,1.45V1070Z" transform="translate(-246.55 -916.97)"/><path id="Path_5-6" data-name="Path 5-6" class="cls-7" d="M385.79,1074.12v2.82l2.1,1.45v-2.85Z" transform="translate(-246.55 -916.97)"/><path id="Path_5-7" data-name="Path 5-7" class="cls-8" d="M389.71,1049.48v2.81l10.92,7.34v-2.84Z" transform="translate(-246.55 -916.97)"/><path id="Path_6" data-name="Path 6" class="cls-9" d="M403.32,1058.33v2.82l7.22,4.63v-2.84Z" transform="translate(-246.55 -916.97)"/><path id="Path_6-2" data-name="Path 6-2" class="cls-9" d="M403.32,1063.58v2.82l7.22,4.63v-2.85Z" transform="translate(-246.55 -916.97)"/><path id="Path_6-3" data-name="Path 6-3" class="cls-9" d="M403.32,1068.83v2.82l7.22,4.63v-2.85Z" transform="translate(-246.55 -916.97)"/><path id="Path_6-4" data-name="Path 6-4" class="cls-9" d="M403.32,1074.08v2.82l7.22,4.63v-2.85Z" transform="translate(-246.55 -916.97)"/><path id="Path_6-5" data-name="Path 6-5" class="cls-9" d="M403.32,1079.66v2.82l7.22,4.63v-2.85Z" transform="translate(-246.55 -916.97)"/><path id="Path_6-6" data-name="Path 6-6" class="cls-9" d="M403.32,1085.24v2.82l7.22,4.62v-2.84Z" transform="translate(-246.55 -916.97)"/><path id="Path_5-8" data-name="Path 5-8" class="cls-8" d="M389.71,1054.69v2.82l10.92,7.34V1062Z" transform="translate(-246.55 -916.97)"/><path id="Path_5-9" data-name="Path 5-9" class="cls-8" d="M389.71,1059.91v2.82l10.92,7.34v-2.85Z" transform="translate(-246.55 -916.97)"/><path id="Path_5-10" data-name="Path 5-10" class="cls-8" d="M389.71,1065.42v2.82l10.92,7.34v-2.85Z" transform="translate(-246.55 -916.97)"/><path id="Path_5-11" data-name="Path 5-11" class="cls-8" d="M389.71,1070.93v2.82l10.92,7.34v-2.85Z" transform="translate(-246.55 -916.97)"/><path id="Path_5-12" data-name="Path 5-12" class="cls-8" d="M389.71,1076.44v2.82l10.92,7.34v-2.85Z" transform="translate(-246.55 -916.97)"/><path id="Path_4" data-name="Path 4" class="cls-10" d="M451,1033.68v47l-35.11,24.15v-47.43Z" transform="translate(-246.55 -916.97)"/><path id="Path_8" data-name="Path 8" class="cls-7" d="M446.21,1044.43v2.82l-2.09,1.45v-2.84Z" transform="translate(-246.55 -916.97)"/><path id="Path_7" data-name="Path 7" class="cls-11" d="M441.78,1047.33v2.82l-10.91,7.34v-2.85Z" transform="translate(-246.55 -916.97)"/><ellipse id="Ellipse_1" data-name="Ellipse 1" class="cls-12" cx="434.26" cy="1070.09" rx="10.99" ry="6.8" transform="translate(-953.66 329.01) rotate(-76.67)"/></g><g id="pc1-2"><path id="Path_1-2" data-name="Path 1-2" class="cls-5" d="M472.26,975.37l70.06,46.49-70.06,47.66-70.07-47.66Z" transform="translate(-246.55 -916.97)"/><path id="Path_3-2" data-name="Path 3-2" class="cls-6" d="M402.19,1021.86v94L472,1164.12l0-94.85Z" transform="translate(-246.55 -916.97)"/><path id="Path_5-13" data-name="Path 5-13" class="cls-7" d="M412,1047.65v5.64l4.19,2.9v-5.69Z" transform="translate(-246.55 -916.97)"/><path id="Path_5-14" data-name="Path 5-14" class="cls-7" d="M412,1058.67v5.64l4.19,2.89v-5.68Z" transform="translate(-246.55 -916.97)"/><path id="Path_5-15" data-name="Path 5-15" class="cls-7" d="M412,1069.69v5.64l4.19,2.89v-5.68Z" transform="translate(-246.55 -916.97)"/><path id="Path_5-16" data-name="Path 5-16" class="cls-7" d="M412,1080.71v5.64l4.19,2.89v-5.69Z" transform="translate(-246.55 -916.97)"/><path id="Path_5-17" data-name="Path 5-17" class="cls-7" d="M412,1091.73v5.64l4.19,2.89v-5.69Z" transform="translate(-246.55 -916.97)"/><path id="Path_5-18" data-name="Path 5-18" class="cls-7" d="M412,1102.75v5.64l4.19,2.89v-5.69Z" transform="translate(-246.55 -916.97)"/><path id="Path_5-19" data-name="Path 5-19" class="cls-8" d="M419.85,1053.45v5.64l21.82,14.67v-5.69Z" transform="translate(-246.55 -916.97)"/><path id="Path_6-7" data-name="Path 6-7" class="cls-9" d="M447.06,1071.17v5.64l14.44,9.25v-5.69Z" transform="translate(-246.55 -916.97)"/><path id="Path_6-8" data-name="Path 6-8" class="cls-9" d="M447.06,1081.67v5.64l14.44,9.25v-5.69Z" transform="translate(-246.55 -916.97)"/><path id="Path_6-9" data-name="Path 6-9" class="cls-9" d="M447.06,1092.17v5.64l14.44,9.25v-5.69Z" transform="translate(-246.55 -916.97)"/><path id="Path_6-10" data-name="Path 6-10" class="cls-9" d="M447.06,1102.67v5.64l14.44,9.25v-5.69Z" transform="translate(-246.55 -916.97)"/><path id="Path_6-11" data-name="Path 6-11" class="cls-9" d="M447.06,1113.83v5.63l14.44,9.26V1123Z" transform="translate(-246.55 -916.97)"/><path id="Path_6-12" data-name="Path 6-12" class="cls-9" d="M447.06,1125v5.64l14.44,9.25v-5.69Z" transform="translate(-246.55 -916.97)"/><path id="Path_5-20" data-name="Path 5-20" class="cls-8" d="M419.85,1063.89v5.64l21.82,14.67v-5.69Z" transform="translate(-246.55 -916.97)"/><path id="Path_5-21" data-name="Path 5-21" class="cls-8" d="M419.85,1074.33V1080l21.82,14.67V1089Z" transform="translate(-246.55 -916.97)"/><path id="Path_5-22" data-name="Path 5-22" class="cls-8" d="M419.85,1085.35V1091l21.82,14.67V1100Z" transform="translate(-246.55 -916.97)"/><path id="Path_5-23" data-name="Path 5-23" class="cls-8" d="M419.85,1096.37V1102l21.82,14.67V1111Z" transform="translate(-246.55 -916.97)"/><path id="Path_5-24" data-name="Path 5-24" class="cls-8" d="M419.85,1107.39V1113l21.82,14.68V1122Z" transform="translate(-246.55 -916.97)"/><path id="Path_4-2" data-name="Path 4-2" class="cls-10" d="M542.33,1021.86v94l-70.23,48.29,0-94.85Z" transform="translate(-246.55 -916.97)"/><path id="Path_8-2" data-name="Path 8-2" class="cls-7" d="M532.85,1043.37V1049l-4.19,2.89v-5.69Z" transform="translate(-246.55 -916.97)"/><path id="Path_7-2" data-name="Path 7-2" class="cls-11" d="M524,1049.17v5.64l-21.82,14.67v-5.69Z" transform="translate(-246.55 -916.97)"/><ellipse id="Ellipse_1-2" data-name="Ellipse 1-2" class="cls-12" cx="508.93" cy="1094.68" rx="21.98" ry="13.61" transform="translate(-920.13 420.59) rotate(-76.67)"/></g><path id="Path_9" data-name="Path 9" class="cls-4" d="M502.16,1089.12l79.51,53.17" transform="translate(-246.55 -916.97)"/></g><text class="cls-13" transform="translate(58.13 282.8) scale(1.1 1)"> <tspan class="cls-14" x="4.51" y="0">B</tspan></text><text class="cls-15" transform="translate(92.31 282.8) scale(0.77 0.7)">LUE</text><text class="cls-16" transform="translate(149.37 282.8) scale(1.1 1)">A</text><text class="cls-15" transform="translate(181.05 282.8) scale(0.77 0.7)">GE</text><text class="cls-17" transform="translate(220.9 282.8) scale(1.1 1)"><tspan xml:space="preserve"> M</tspan></text><text class="cls-18" transform="translate(277.42 282.8) scale(0.77 0.7)">ARKETING</text></g></g></svg>