<svg xmlns="http://www.w3.org/2000/svg" viewBox="0 0 495.86 341.07"><defs><style>.cls-1{isolation:isolate;}.cls-2,.cls-3{fill:#2d2e83;}.cls-2{stroke:#1d1d1b;stroke-linejoin:round;stroke-width:0.25px;opacity:0.98;mix-blend-mode:overlay;}.cls-3{opacity:0;}.cls-4{fill:none;stroke:#3bbeef;stroke-linecap:round;stroke-width:4px;stroke-dasharray:14 12;}.cls-5{fill:#79cbe4;}.cls-6{fill:#3bbeef;}.cls-7{fill:#cdeaf8;}.cls-8{fill:#2a5aa6;}.cls-9{fill:#9bd3d2;}.cls-10{fill:#1761ac;}.cls-11{fill:#72c2ab;}.cls-12{fill:#182d4b;}.cls-13{font-size:12px;letter-spacing:0.1em;}.cls-13,.cls-15,.cls-16,.cls-17{fill:#54c3ea;font-family:Gadugi-Bold, Gadugi;font-weight:700;}.cls-14,.cls-15,.cls-16,.cls-17{font-size:36px;}.cls-14,.cls-16{letter-spacing:0.1em;}.cls-15{letter-spacing:0.1em;}.cls-17{letter-spacing:0.1em;}</style></defs><title>blueageportfolio1</title><g class="cls-1"><g id="Layer_1" data-name="Layer 1"><rect class="cls-2" x="0.13" y="0.13" width="479.64" height="340.82" rx="10"/><g id="server"><path id="Path_11" data-name="Path 11" class="cls-3" d="M231.33,244H495.86V152.41H231.33Z" transform="translate(0 0.13)"/><path id="Path_10" data-name="Path 10" class="cls-4" d="M106.46,77.29,192.09,128" transform="translate(0 0.13)"/><g id="pc1"><path id="Path_1" data-name="Path 1" class="cls-5" d="M169.5,97.55l37.73,22.15L169.5,142.41,131.78,119.7Z" transform="translate(0 0.13)"/><path id="Path_3" data-name="Path 3" class="cls-6" d="M131.78,119.7v44.78l37.61,23,0-45.2Z" transform="translate(0 0.13)"/><path id="Path_5" data-name="Path 5" class="cls-7" d="M137.06,132v2.69l2.26,1.38v-2.71Z" transform="translate(0 0.13)"/><path id="Path_5-2" data-name="Path 5-2" class="cls-7" d="M137.06,137.25v2.68l2.26,1.38V138.6Z" transform="translate(0 0.13)"/><path id="Path_5-3" data-name="Path 5-3" class="cls-7" d="M137.06,142.5v2.68l2.26,1.38v-2.71Z" transform="translate(0 0.13)"/><path id="Path_5-4" data-name="Path 5-4" class="cls-7" d="M137.06,147.75v2.68l2.26,1.38V149.1Z" transform="translate(0 0.13)"/><path id="Path_5-5" data-name="Path 5-5" class="cls-7" d="M137.06,153v2.68l2.26,1.38v-2.71Z" transform="translate(0 0.13)"/><path id="Path_5-6" data-name="Path 5-6" class="cls-7" d="M137.06,158.25v2.68l2.26,1.39V159.6Z" transform="translate(0 0.13)"/><path id="Path_5-7" data-name="Path 5-7" class="cls-8" d="M141.28,134.76v2.68l11.76,7v-2.72Z" transform="translate(0 0.13)"/><path id="Path_6" data-name="Path 6" class="cls-9" d="M155.94,143.2v2.69l7.77,4.41v-2.71Z" transform="translate(0 0.13)"/><path id="Path_6-2" data-name="Path 6-2" class="cls-9" d="M155.94,148.2v2.69l7.77,4.41v-2.71Z" transform="translate(0 0.13)"/><path id="Path_6-3" data-name="Path 6-3" class="cls-9" d="M155.94,153.21v2.68l7.77,4.41v-2.71Z" transform="translate(0 0.13)"/><path id="Path_6-4" data-name="Path 6-4" class="cls-9" d="M155.94,158.21v2.69l7.77,4.41V162.6Z" transform="translate(0 0.13)"/><path id="Path_6-5" data-name="Path 6-5" class="cls-9" d="M155.94,163.53v2.68l7.77,4.41v-2.71Z" transform="translate(0 0.13)"/><path id="Path_6-6" data-name="Path 6-6" class="cls-9" d="M155.94,168.84v2.69l7.77,4.41v-2.71Z" transform="translate(0 0.13)"/><path id="Path_5-8" data-name="Path 5-8" class="cls-8" d="M141.28,139.73v2.69l11.76,7V146.7Z" transform="translate(0 0.13)"/><path id="Path_5-9" data-name="Path 5-9" class="cls-8" d="M141.28,144.71v2.68l11.76,7v-2.72Z" transform="translate(0 0.13)"/><path id="Path_5-10" data-name="Path 5-10" class="cls-8" d="M141.28,150v2.68l11.76,7v-2.71Z" transform="translate(0 0.13)"/><path id="Path_5-11" data-name="Path 5-11" class="cls-8" d="M141.28,155.21v2.68l11.76,7v-2.71Z" transform="translate(0 0.13)"/><path id="Path_5-12" data-name="Path 5-12" class="cls-8" d="M141.28,160.46v2.69l11.76,7v-2.71Z" transform="translate(0 0.13)"/><path id="Path_4" data-name="Path 4" class="cls-10" d="M207.23,119.7v44.78l-37.81,23V142.3Z" transform="translate(0 0.13)"/><path id="Path_8" data-name="Path 8" class="cls-7" d="M202.13,130v2.69L199.87,134v-2.71Z" transform="translate(0 0.13)"/><path id="Path_7" data-name="Path 7" class="cls-11" d="M197.36,132.72v2.68l-11.76,7v-2.71Z" transform="translate(0 0.13)"/><ellipse id="Ellipse_1" data-name="Ellipse 1" class="cls-12" cx="189.25" cy="154.4" rx="10.56" ry="7.26" transform="translate(-15.66 287.45) rotate(-72.18)"/></g><g id="pc1-2"><path id="Path_1-2" data-name="Path 1-2" class="cls-5" d="M230.17,64.13l75.46,44.31-75.46,45.42-75.45-45.42Z" transform="translate(0 0.13)"/><path id="Path_3-2" data-name="Path 3-2" class="cls-6" d="M154.72,108.44V198l75.22,46,0-90.4Z" transform="translate(0 0.13)"/><path id="Path_5-13" data-name="Path 5-13" class="cls-7" d="M165.29,133v5.37l4.51,2.76v-5.42Z" transform="translate(0 0.13)"/><path id="Path_5-14" data-name="Path 5-14" class="cls-7" d="M165.29,143.52v5.37l4.51,2.77v-5.43Z" transform="translate(0 0.13)"/><path id="Path_5-15" data-name="Path 5-15" class="cls-7" d="M165.29,154v5.37l4.51,2.76v-5.42Z" transform="translate(0 0.13)"/><path id="Path_5-16" data-name="Path 5-16" class="cls-7" d="M165.29,164.53v5.37l4.51,2.76v-5.42Z" transform="translate(0 0.13)"/><path id="Path_5-17" data-name="Path 5-17" class="cls-7" d="M165.29,175v5.37l4.51,2.76v-5.42Z" transform="translate(0 0.13)"/><path id="Path_5-18" data-name="Path 5-18" class="cls-7" d="M165.29,185.53v5.37l4.51,2.76v-5.42Z" transform="translate(0 0.13)"/><path id="Path_5-19" data-name="Path 5-19" class="cls-8" d="M173.73,138.55v5.37l23.51,14v-5.43Z" transform="translate(0 0.13)"/><path id="Path_6-7" data-name="Path 6-7" class="cls-9" d="M203,155.44v5.37l15.56,8.82v-5.42Z" transform="translate(0 0.13)"/><path id="Path_6-8" data-name="Path 6-8" class="cls-9" d="M203,165.44v5.38l15.56,8.82v-5.43Z" transform="translate(0 0.13)"/><path id="Path_6-9" data-name="Path 6-9" class="cls-9" d="M203,175.45v5.37l15.56,8.82v-5.42Z" transform="translate(0 0.13)"/><path id="Path_6-10" data-name="Path 6-10" class="cls-9" d="M203,185.46v5.37l15.56,8.82v-5.42Z" transform="translate(0 0.13)"/><path id="Path_6-11" data-name="Path 6-11" class="cls-9" d="M203,196.09v5.37l15.56,8.82v-5.42Z" transform="translate(0 0.13)"/><path id="Path_6-12" data-name="Path 6-12" class="cls-9" d="M203,206.72v5.38l15.56,8.82v-5.43Z" transform="translate(0 0.13)"/><path id="Path_5-20" data-name="Path 5-20" class="cls-8" d="M173.73,148.5v5.37l23.51,14v-5.42Z" transform="translate(0 0.13)"/><path id="Path_5-21" data-name="Path 5-21" class="cls-8" d="M173.73,158.45v5.37l23.51,14v-5.42Z" transform="translate(0 0.13)"/><path id="Path_5-22" data-name="Path 5-22" class="cls-8" d="M173.73,169v5.37l23.51,14v-5.43Z" transform="translate(0 0.13)"/><path id="Path_5-23" data-name="Path 5-23" class="cls-8" d="M173.73,179.45v5.37l23.51,14v-5.42Z" transform="translate(0 0.13)"/><path id="Path_5-24" data-name="Path 5-24" class="cls-8" d="M173.73,190v5.37l23.51,14v-5.42Z" transform="translate(0 0.13)"/><path id="Path_4-2" data-name="Path 4-2" class="cls-10" d="M305.63,108.44V198L230,244l0-90.4Z" transform="translate(0 0.13)"/><path id="Path_8-2" data-name="Path 8-2" class="cls-7" d="M295.42,128.94v5.37l-4.51,2.76v-5.42Z" transform="translate(0 0.13)"/><path id="Path_7-2" data-name="Path 7-2" class="cls-11" d="M285.88,134.47v5.37l-23.51,14V148.4Z" transform="translate(0 0.13)"/><ellipse id="Ellipse_1-2" data-name="Ellipse 1-2" class="cls-12" cx="269.67" cy="177.84" rx="21.13" ry="14.53" transform="translate(17.83 380.27) rotate(-72.18)"/></g><path id="Path_9" data-name="Path 9" class="cls-4" d="M262.37,172.54,348,223.22" transform="translate(0 0.13)"/></g><text class="cls-13" transform="translate(58.35 273.09) scale(1.1 1)"> <tspan class="cls-14" x="4.51" y="0">B</tspan></text><text class="cls-15" transform="translate(92.66 273.09) scale(0.77 0.7)">LUE</text><text class="cls-16" transform="translate(149.95 273.09) scale(1.1 1)">A</text><text class="cls-15" transform="translate(181.75 273.09) scale(0.77 0.7)">GE</text><text class="cls-16" transform="translate(221.76 273.09) scale(1.1 1)"><tspan xml:space="preserve"> M</tspan></text><text class="cls-17" transform="translate(278.5 273.09) scale(0.77 0.7)">ARKETING</text></g></g></svg>